# xmcd CD database file
#
# Track frame offsets:
#	150
#	21575
#	42162
#
# Disc length: 839 seconds
#
# Revision: 0
# Processed by: cddbd v1.5PL3 Copyright (c) Steve Scherf et al.
# Submitted via: CDex 1.40Release
#
DISCID=20034503
DTITLE=YOKO Black.Stone - 's All Right
DYEAR=1999
DGENRE=R&B
TTITLE0='s All Right
TTITLE1=Did I Hear You Say That You're In Love
TTITLE2='s All Right(Re-Mix) 
EXTD=YEAR: 1999 ID3G: 14
EXTT0=
EXTT1=
EXTT2=
PLAYORDER=
